<?xml version="1.0" encoding="UTF-8"?>
<svg xmlns="http://www.w3.org/2000/svg" version="1.1" width="100" height="100" viewBox="0 0 100 100"><rect x="0" y="0" width="100" height="100" fill="#ffffff"/><g transform="scale(3.448)"><g transform="translate(0,0)"><path fill-rule="evenodd" d="M9 0L9 1L10 1L10 2L8 2L8 3L9 3L9 4L10 4L10 5L9 5L9 6L8 6L8 8L4 8L4 9L5 9L5 10L3 10L3 8L0 8L0 9L1 9L1 11L0 11L0 12L1 12L1 11L2 11L2 13L3 13L3 15L4 15L4 16L2 16L2 17L3 17L3 18L2 18L2 19L1 19L1 18L0 18L0 19L1 19L1 20L0 20L0 21L1 21L1 20L2 20L2 21L3 21L3 20L4 20L4 21L8 21L8 25L10 25L10 27L11 27L11 28L12 28L12 29L13 29L13 28L12 28L12 27L11 27L11 26L12 26L12 24L14 24L14 26L13 26L13 27L14 27L14 26L15 26L15 25L16 25L16 28L17 28L17 29L18 29L18 28L19 28L19 27L17 27L17 25L19 25L19 26L21 26L21 27L20 27L20 29L21 29L21 27L22 27L22 26L21 26L21 25L23 25L23 27L24 27L24 28L22 28L22 29L24 29L24 28L25 28L25 23L26 23L26 22L27 22L27 25L26 25L26 27L27 27L27 29L29 29L29 28L28 28L28 27L29 27L29 24L28 24L28 23L29 23L29 21L26 21L26 22L25 22L25 20L26 20L26 18L27 18L27 20L28 20L28 19L29 19L29 16L28 16L28 15L29 15L29 12L28 12L28 11L29 11L29 9L28 9L28 10L26 10L26 9L27 9L27 8L26 8L26 9L25 9L25 10L24 10L24 12L25 12L25 14L23 14L23 12L22 12L22 11L21 11L21 10L23 10L23 8L21 8L21 10L20 10L20 11L19 11L19 10L17 10L17 9L18 9L18 7L19 7L19 8L20 8L20 7L21 7L21 6L20 6L20 5L21 5L21 4L19 4L19 3L20 3L20 2L21 2L21 1L20 1L20 0L18 0L18 1L17 1L17 0L16 0L16 1L15 1L15 0L12 0L12 1L10 1L10 0ZM13 1L13 2L14 2L14 1ZM18 1L18 2L17 2L17 3L15 3L15 4L16 4L16 6L15 6L15 5L14 5L14 4L13 4L13 3L12 3L12 2L11 2L11 3L12 3L12 4L11 4L11 5L10 5L10 6L9 6L9 7L10 7L10 6L11 6L11 8L12 8L12 10L10 10L10 8L9 8L9 10L8 10L8 12L7 12L7 11L5 11L5 13L4 13L4 12L3 12L3 13L4 13L4 14L7 14L7 13L10 13L10 14L9 14L9 15L6 15L6 16L7 16L7 17L6 17L6 18L5 18L5 19L4 19L4 18L3 18L3 19L2 19L2 20L3 20L3 19L4 19L4 20L5 20L5 19L6 19L6 20L7 20L7 19L6 19L6 18L7 18L7 17L8 17L8 20L9 20L9 18L10 18L10 19L12 19L12 20L10 20L10 21L9 21L9 22L11 22L11 21L12 21L12 20L13 20L13 21L14 21L14 22L13 22L13 23L14 23L14 22L15 22L15 24L16 24L16 23L19 23L19 22L20 22L20 20L22 20L22 17L21 17L21 16L22 16L22 15L23 15L23 14L22 14L22 15L20 15L20 14L21 14L21 11L20 11L20 12L19 12L19 13L17 13L17 14L18 14L18 15L20 15L20 16L18 16L18 17L19 17L19 18L17 18L17 17L15 17L15 18L14 18L14 16L12 16L12 15L10 15L10 14L11 14L11 13L12 13L12 12L13 12L13 13L14 13L14 14L13 14L13 15L14 15L14 14L15 14L15 16L16 16L16 12L17 12L17 10L16 10L16 9L17 9L17 7L18 7L18 6L19 6L19 7L20 7L20 6L19 6L19 4L18 4L18 3L19 3L19 1ZM13 5L13 6L12 6L12 8L14 8L14 10L13 10L13 11L14 11L14 10L15 10L15 8L16 8L16 7L17 7L17 6L18 6L18 5L17 5L17 6L16 6L16 7L15 7L15 6L14 6L14 5ZM13 6L13 7L14 7L14 6ZM6 9L6 10L7 10L7 9ZM9 10L9 11L10 11L10 10ZM25 10L25 11L26 11L26 13L27 13L27 14L25 14L25 15L24 15L24 16L23 16L23 18L24 18L24 20L25 20L25 18L26 18L26 17L27 17L27 18L28 18L28 17L27 17L27 14L28 14L28 13L27 13L27 11L26 11L26 10ZM11 11L11 12L12 12L12 11ZM15 11L15 12L16 12L16 11ZM6 12L6 13L7 13L7 12ZM1 14L1 15L2 15L2 14ZM9 15L9 16L10 16L10 17L11 17L11 18L12 18L12 16L10 16L10 15ZM25 15L25 16L26 16L26 15ZM0 16L0 17L1 17L1 16ZM4 16L4 17L5 17L5 16ZM13 18L13 19L14 19L14 18ZM16 18L16 19L17 19L17 21L16 21L16 20L15 20L15 21L16 21L16 22L19 22L19 21L18 21L18 19L17 19L17 18ZM21 21L21 24L24 24L24 21ZM22 22L22 23L23 23L23 22ZM9 23L9 24L10 24L10 23ZM11 23L11 24L12 24L12 23ZM19 24L19 25L20 25L20 24ZM8 26L8 29L9 29L9 26ZM27 26L27 27L28 27L28 26ZM0 0L0 7L7 7L7 0ZM1 1L1 6L6 6L6 1ZM2 2L2 5L5 5L5 2ZM22 0L22 7L29 7L29 0ZM23 1L23 6L28 6L28 1ZM24 2L24 5L27 5L27 2ZM0 22L0 29L7 29L7 22ZM1 23L1 28L6 28L6 23ZM2 24L2 27L5 27L5 24Z" fill="#000000"/></g></g></svg>
